<?xml version="1.0" ?><svg id="Layer_1" style="enable-background:new 0 0 512 512;" version="1.1" viewBox="0 0 512 512" xml:space="preserve" xmlns="http://www.w3.org/2000/svg" xmlns:xlink="http://www.w3.org/1999/xlink"><g><path d="M255.918,340.505c57.375,0,114.585,0,171.96,0   c-1.311-51.309,13.77-96.882,36.556-139.503c-94.094,21.967-162.452-0.656-208.516-61.801   c-46.063,61.145-114.258,83.767-208.516,61.801c22.95,42.621,37.868,88.193,36.72,139.503   C141.333,340.505,198.707,340.505,255.918,340.505L255.918,340.505z" style="fill-rule:evenodd;clip-rule:evenodd;fill:#E1B508;"/><path d="M255.918,340.505c57.375,0,114.585,0,171.96,0   c-16.229-63.44,5.082-103.93,36.556-139.503c-102.127,58.031-169.009,29.015-208.516-61.801   c-39.343,90.816-106.225,119.831-208.516,61.801c31.474,35.572,52.785,76.063,36.72,139.503   C141.333,340.505,198.707,340.505,255.918,340.505L255.918,340.505z" style="fill-rule:evenodd;clip-rule:evenodd;fill:#FBC800;"/><rect height="10.983" style="fill-rule:evenodd;clip-rule:evenodd;fill:#E1B508;" width="372.116" x="69.86" y="340.505"/><rect height="10.983" style="fill-rule:evenodd;clip-rule:evenodd;fill:#E1B508;" width="372.116" x="69.86" y="394.109"/><rect height="42.621" style="fill-rule:evenodd;clip-rule:evenodd;fill:#FBC800;" width="355.067" x="78.385" y="351.488"/><polygon points="255.918,197.888 301.654,260.508 255.918,323.292    210.182,260.508  " style="fill-rule:evenodd;clip-rule:evenodd;fill:#E1B508;"/><polygon points="255.918,213.297 290.507,260.508 255.918,307.883    221.493,260.508  " style="fill-rule:evenodd;clip-rule:evenodd;fill:#63AFB7;"/><polygon points="255.918,213.297 255.918,260.508 221.493,260.508  " style="fill-rule:evenodd;clip-rule:evenodd;fill:#50929B;"/><polygon points="255.918,307.883 255.918,260.508 290.507,260.508  " style="fill-rule:evenodd;clip-rule:evenodd;fill:#50929B;"/><polygon points="255.918,233.46 275.753,260.508 255.918,287.556    236.247,260.508  " style="fill-rule:evenodd;clip-rule:evenodd;fill:#80D7DE;"/><polygon points="146.578,244.279 177.233,286.245 146.578,328.21    115.924,286.245  " style="fill-rule:evenodd;clip-rule:evenodd;fill:#E1B508;"/><polygon points="146.578,254.607 169.692,286.245 146.578,318.047    123.301,286.245  " style="fill-rule:evenodd;clip-rule:evenodd;fill:#63AFB7;"/><polygon points="146.578,254.607 146.578,286.245 123.301,286.245  " style="fill-rule:evenodd;clip-rule:evenodd;fill:#50929B;"/><polygon points="146.578,318.047 146.578,286.245 169.692,286.245  " style="fill-rule:evenodd;clip-rule:evenodd;fill:#50929B;"/><polygon points="146.578,268.049 159.693,286.245 146.578,304.441    133.3,286.245  " style="fill-rule:evenodd;clip-rule:evenodd;fill:#80D7DE;"/><polygon points="365.422,244.279 396.076,286.245 365.422,328.21    334.767,286.245  " style="fill-rule:evenodd;clip-rule:evenodd;fill:#E1B508;"/><polygon points="365.422,254.607 388.536,286.245 365.422,318.047    342.308,286.245  " style="fill-rule:evenodd;clip-rule:evenodd;fill:#63AFB7;"/><polygon points="365.422,254.607 365.422,286.245 342.308,286.245  " style="fill-rule:evenodd;clip-rule:evenodd;fill:#50929B;"/><polygon points="365.422,318.047 365.422,286.245 388.536,286.245  " style="fill-rule:evenodd;clip-rule:evenodd;fill:#50929B;"/><polygon points="365.422,268.049 378.7,286.245 365.422,304.441    352.143,286.245  " style="fill-rule:evenodd;clip-rule:evenodd;fill:#80D7DE;"/><path d="M255.918,106.908c17.868,0,32.294,14.426,32.294,32.294   c0,17.868-14.426,32.294-32.294,32.294s-32.294-14.426-32.294-32.294C223.624,121.334,238.05,106.908,255.918,106.908   L255.918,106.908z" style="fill-rule:evenodd;clip-rule:evenodd;fill:#FBC800;"/><path d="M47.402,179.036c12.131,0,21.967,9.835,21.967,21.966   c0,12.131-9.836,21.967-21.967,21.967c-11.967,0-21.802-9.836-21.802-21.967C25.6,188.872,35.435,179.036,47.402,179.036   L47.402,179.036z" style="fill-rule:evenodd;clip-rule:evenodd;fill:#FBC800;"/><path d="M464.434,179.036c12.131,0,21.966,9.835,21.966,21.966   c0,12.131-9.835,21.967-21.966,21.967s-21.803-9.836-21.803-21.967C442.631,188.872,452.303,179.036,464.434,179.036   L464.434,179.036z" style="fill-rule:evenodd;clip-rule:evenodd;fill:#FBC800;"/><path d="M151.988,360.832c3.935,3.934,8.033,8.032,11.967,11.966   c-3.934,3.935-8.032,7.869-11.967,11.803c-3.934-3.934-7.868-7.868-11.803-11.803C144.119,368.864,148.054,364.766,151.988,360.832   L151.988,360.832z M193.626,360.832c3.934,3.934,7.868,8.032,11.803,11.966c-3.935,3.935-7.869,7.869-11.803,11.803   c-3.934-3.934-8.033-7.868-11.967-11.803C185.593,368.864,189.691,364.766,193.626,360.832L193.626,360.832z M235.099,360.832   c4.098,3.934,8.033,8.032,11.967,11.966c-3.934,3.935-7.868,7.869-11.967,11.803c-3.934-3.934-7.868-7.868-11.803-11.803   C227.231,368.864,231.165,364.766,235.099,360.832L235.099,360.832z M276.737,360.832c3.934,3.934,7.868,8.032,11.967,11.966   c-4.099,3.935-8.033,7.869-11.967,11.803c-3.934-3.934-7.869-7.868-11.967-11.803C268.868,368.864,272.803,364.766,276.737,360.832   L276.737,360.832z M318.374,360.832c3.935,3.934,7.869,8.032,11.803,11.966c-3.934,3.935-7.868,7.869-11.803,11.803   c-4.098-3.934-8.032-7.868-11.967-11.803C310.342,368.864,314.276,364.766,318.374,360.832L318.374,360.832z M359.848,360.832   c3.934,3.934,8.033,8.032,11.967,11.966c-3.934,3.935-8.033,7.869-11.967,11.803c-3.934-3.934-7.868-7.868-11.803-11.803   C351.98,368.864,355.914,364.766,359.848,360.832L359.848,360.832z M401.486,360.832l11.803,11.966l-11.803,11.803l-11.967-11.803   L401.486,360.832z M110.514,360.832l11.803,11.966l-11.803,11.803l-11.967-11.803L110.514,360.832z" style="fill-rule:evenodd;clip-rule:evenodd;fill:#E1B508;"/></g></svg>